<?xml version="1.0" encoding="UTF-8"?><svg id="Ebene_1" xmlns="http://www.w3.org/2000/svg" viewBox="0 0 454 260"><defs><style>.cls-1{fill:#fff;}.cls-2{fill:#7d84b2;}</style></defs><g><rect class="cls-1" x="89.5" y="112.5" width="273" height="37" rx="8.62" ry="8.62"/><path class="cls-2" d="M353.88,119c1.17,0,2.12,.95,2.12,2.12v19.76c0,1.17-.95,2.12-2.12,2.12H98.12c-1.17,0-2.12-.95-2.12-2.12v-19.76c0-1.17,.95-2.12,2.12-2.12h255.76m0-13H98.12c-8.35,0-15.12,6.77-15.12,15.12v19.76c0,8.35,6.77,15.12,15.12,15.12h255.76c8.35,0,15.12-6.77,15.12-15.12v-19.76c0-8.35-6.77-15.12-15.12-15.12h0Z"/></g><g><rect class="cls-1" x="54.5" y="6.5" width="34" height="247" rx="11" ry="11"/><path class="cls-2" d="M77.5,13c2.48,0,4.5,2.02,4.5,4.5V242.5c0,2.48-2.02,4.5-4.5,4.5h-12c-2.48,0-4.5-2.02-4.5-4.5V17.5c0-2.48,2.02-4.5,4.5-4.5h12m0-13h-12c-9.67,0-17.5,7.84-17.5,17.5V242.5c0,9.67,7.83,17.5,17.5,17.5h12c9.67,0,17.5-7.83,17.5-17.5V17.5c0-9.66-7.83-17.5-17.5-17.5h0Z"/></g><g><rect class="cls-1" x="365.5" y="6.5" width="34" height="247" rx="11" ry="11"/><path class="cls-2" d="M388.5,13c2.48,0,4.5,2.02,4.5,4.5V242.5c0,2.48-2.02,4.5-4.5,4.5h-12c-2.48,0-4.5-2.02-4.5-4.5V17.5c0-2.48,2.02-4.5,4.5-4.5h12m0-13h-12c-9.66,0-17.5,7.84-17.5,17.5V242.5c0,9.67,7.84,17.5,17.5,17.5h12c9.66,0,17.5-7.83,17.5-17.5V17.5c0-9.66-7.84-17.5-17.5-17.5h0Z"/></g><g><path class="cls-1" d="M37.5,227.5c-6.07,0-11-4.93-11-11V48.5c0-6.07,4.93-11,11-11h16V227.5h-16Z"/><path class="cls-2" d="M47,44V221h-9.5c-2.48,0-4.5-2.02-4.5-4.5V48.5c0-2.48,2.02-4.5,4.5-4.5h9.5m13-13h-22.5c-9.67,0-17.5,7.84-17.5,17.5V216.5c0,9.67,7.83,17.5,17.5,17.5h22.5V31h0Z"/></g><g><path class="cls-1" d="M400.5,223.5V33.5h16c6.07,0,11,4.93,11,11V212.5c0,6.07-4.93,11-11,11h-16Z"/><path class="cls-2" d="M416.5,40c2.48,0,4.5,2.02,4.5,4.5V212.5c0,2.48-2.02,4.5-4.5,4.5h-9.5V40h9.5m0-13h-22.5V230h22.5c9.66,0,17.5-7.83,17.5-17.5V44.5c0-9.66-7.84-17.5-17.5-17.5h0Z"/></g><g><path class="cls-1" d="M429.5,170.5V91.5h9.09c4.91,0,8.91,4,8.91,8.91v61.19c0,4.91-4,8.91-8.91,8.91h-9.09Z"/><path class="cls-2" d="M438.59,98c1.33,0,2.41,1.08,2.41,2.41v61.19c0,1.33-1.08,2.41-2.41,2.41h-2.59V98h2.59m0-13h-15.59v92h15.59c8.51,0,15.41-6.9,15.41-15.41v-61.19c0-8.51-6.9-15.41-15.41-15.41h0Z"/></g><g><path class="cls-1" d="M15.41,169.5c-4.91,0-8.91-4-8.91-8.91v-61.19c0-4.91,4-8.91,8.91-8.91h9.09v79H15.41Z"/><path class="cls-2" d="M18,97v66h-2.59c-1.33,0-2.41-1.08-2.41-2.41v-61.19c0-1.33,1.08-2.41,2.41-2.41h2.59m13-13H15.41c-8.51,0-15.41,6.9-15.41,15.41v61.19c0,8.51,6.9,15.41,15.41,15.41h15.59V84h0Z"/></g></svg>